<svg viewBox="0 0 100 100" xml:space="preserve" xmlns="http://www.w3.org/2000/svg" enable-background="new 0 0 100 100"><path d="M90 4H10c-3.3 0-6 2.7-6 6v80c0 3.3 2.7 6 6 6h80c3.3 0 6-2.7 6-6V10c0-3.3-2.7-6-6-6zM16.5 21.5c1.6-1.6 3.8-2.5 6-2.5s4.4.9 6 2.5c1.6 1.6 2.5 3.7 2.5 6s-.9 4.5-2.6 6.1c-1.6 1.5-3.7 2.4-5.8 2.4h-.2c-2.1.1-4.3-.8-5.9-2.4-1.6-1.6-2.5-3.8-2.5-6.1s.9-4.4 2.5-6zM31 83.1c0 1.6-1.4 2.9-3 2.9H17c-1.6 0-3-1.4-3-3V47c0-1.7 1.3-3 2.9-3H28c1.6 0 3 1.4 3 3v36.1zm55 .9c0 1-1 2-2 2H71c-1 0-2-1-2-2V61.6c0-1.8-.4-3.2-1.4-4.1-1.1-1.1-2.6-1.8-4.2-1.7-3.3 0-7.5 2.8-7.5 5.9v22.6c0 1.1-1.1 1.8-2 1.8h-13c-.9 0-2-.7-2-1.8V45.9c0-1.1 1.1-1.9 2-1.9h12c1 0 2 1 2 2v1.5c2.7-2.8 8.1-4.5 12-4.5H69c7.9 0 17 6.2 17 14.2V84z" fill="#ffffff" class="fill-000000"></path></svg>